<svg width="51" height="50" viewBox="0 0 51 50" fill="none" xmlns="http://www.w3.org/2000/svg">
<path d="M25.4697 50C39.2768 50 50.4697 38.8071 50.4697 25C50.4697 11.1929 39.2768 0 25.4697 0C11.6626 0 0.469727 11.1929 0.469727 25C0.469727 38.8071 11.6626 50 25.4697 50Z" fill="#FCE82F"/>
<path d="M34.4323 20.6518C27.2114 20.6518 27.202 27.8454 27.202 27.8824C27.202 27.8824 26.7074 35.085 34.4323 35.085C34.4323 35.085 40.8746 35.4513 40.8746 30.0723H37.5665C37.5665 30.0723 37.6761 32.0973 34.5423 32.0973C34.5423 32.0973 31.2343 32.3175 31.2343 28.8258H40.9846C40.9846 28.8258 42.0569 20.6518 34.4323 20.6518ZM31.1973 26.3057C31.1973 26.3057 31.6006 23.4099 34.5058 23.4099C37.4199 23.4099 37.374 26.3057 37.374 26.3057H31.1973ZM22.9323 24.4549C22.9323 24.4549 25.8005 24.2441 25.8005 20.8719C25.8005 17.509 23.4546 15.8593 20.4763 15.8593H10.6796V34.6906H20.4754C20.4754 34.6906 26.4596 34.8742 26.4596 29.1284C26.46 29.1284 26.7167 24.4549 22.9323 24.4549ZM14.9962 19.2038H20.4759C20.4759 19.2038 21.8048 19.2038 21.8048 21.1647C21.8048 23.1256 21.0258 23.4099 20.1367 23.4099H14.9962V19.2038ZM20.2014 31.346H14.9962V26.3057H20.4759C20.4759 26.3057 22.4648 26.2874 22.4554 28.8989C22.4554 31.0986 20.9803 31.3277 20.2014 31.346ZM30.3818 16.968V19.2867H38.153V16.968H30.3818Z" fill="black"/>
</svg>
