<svg width="51" height="50" viewBox="0 0 51 50" fill="none" xmlns="http://www.w3.org/2000/svg">
<path d="M25.4697 50C39.2768 50 50.4697 38.8071 50.4697 25C50.4697 11.1929 39.2768 0 25.4697 0C11.6626 0 0.469727 11.1929 0.469727 25C0.469727 38.8071 11.6626 50 25.4697 50Z" fill="#FCE82F"/>
<path d="M25.4692 9.12329C16.7038 9.12329 9.57251 16.2461 9.57251 25.0005C9.57251 33.7548 16.7038 40.8772 25.4692 40.8772C34.2352 40.8772 41.3669 33.7553 41.3669 25.0005C41.3669 16.2461 34.2352 9.12329 25.4692 9.12329ZM35.93 16.6169C37.7433 18.8643 38.8454 21.7027 38.8962 24.7955C38.2928 24.6716 35.7374 24.1952 32.6839 24.1952C31.6985 24.1952 30.6615 24.2446 29.6218 24.373C29.534 24.1595 29.4462 23.9469 29.354 23.7321C29.0843 23.098 28.7938 22.4687 28.493 21.8488C33.1928 19.9125 35.4598 17.2252 35.93 16.6169ZM25.4692 11.6087C28.8566 11.6087 31.953 12.8672 34.318 14.9399C33.9437 15.4506 31.9133 17.9886 27.3815 19.7008C25.2839 15.8664 22.9879 12.6912 22.4415 11.9541C23.4152 11.7286 24.4287 11.6087 25.4692 11.6087ZM19.7003 12.91C20.1634 13.5477 22.4629 16.7568 24.6145 20.5605C18.8402 22.0783 13.7126 22.1773 12.475 22.1773H12.3436C13.2326 18.08 16.001 14.6752 19.7003 12.91ZM12.0387 25.0214C12.0387 24.9109 12.0405 24.8004 12.0441 24.6903C12.1243 24.6912 12.2428 24.6912 12.3966 24.6912C14.0633 24.6912 19.8487 24.5535 25.8106 22.7842C26.1725 23.4919 26.517 24.2103 26.8374 24.9283C26.6868 24.9715 26.5384 25.0147 26.3908 25.0629C19.678 27.2309 15.9885 32.9705 15.4208 33.9086C13.3173 31.5386 12.0387 28.4271 12.0387 25.0214ZM25.4692 38.4333C22.3889 38.4333 19.5461 37.39 17.2778 35.6408C17.6615 34.8886 20.4463 29.8745 27.8027 27.3143C27.8071 27.3125 27.812 27.3107 27.8174 27.3094C29.6619 32.1117 30.4431 36.1422 30.6575 37.3913C29.0612 38.0625 27.308 38.4333 25.4692 38.4333ZM33.0765 36.0691C32.8964 35.0356 32.1727 31.2583 30.5024 26.6512C31.4392 26.5054 32.3505 26.4479 33.2053 26.4479C36.0124 26.4479 38.2081 27.0625 38.7184 27.2185C38.1119 30.8768 36.0173 34.0427 33.0765 36.0691Z" fill="black"/>
</svg>
